<svg xmlns="http://www.w3.org/2000/svg" viewBox="0 0 24 24">
<path d="M14.443 19.446a5342.008 5342.008 0 0 1-1.747-2.44c-.467-.653-.847-1.163-.867-1.163-.02 0-.755.987-1.737 2.335a152.208 152.208 0 0 1-1.72 2.336c-.026 0-3.374-2.358-3.383-2.383-.004-.012.753-1.123 1.682-2.469.93-1.345 1.69-2.468 1.69-2.494 0-.042-.302-.147-2.663-.935-1.465-.488-2.678-.893-2.695-.9-.025-.01.115-.476.593-1.985.344-1.086.633-1.982.643-1.993.01-.01 1.282.396 2.828.905 1.547.509 2.825.925 2.84.925.017 0 .034-.024.04-.053.006-.029.02-1.345.03-2.925.01-1.58.027-2.887.038-2.903.014-.023.449-.029 2.044-.029 1.113 0 2.036.008 2.05.018.018.012.049.88.1 2.832.084 3.204.086 3.247.137 3.247.02 0 1.245-.41 2.723-.912 1.478-.501 2.695-.903 2.704-.893.03.033 1.242 3.98 1.227 3.995-.008.008-1.242.43-2.741.939-2.063.699-2.728.933-2.734.963-.004.022.705 1.082 1.607 2.402.888 1.3 1.611 2.372 1.607 2.384-.009.027-3.331 2.475-3.36 2.475-.01 0-.432-.576-.936-1.28z"/>
</svg>
