<svg xmlns="http://www.w3.org/2000/svg" viewBox="0 0 24 24">
<path d="M5.24 2.156a2.735 2.735 0 0 0-2.74 2.74v10.957a2.735 2.735 0 0 0 2.74 2.74h8.147C13.378 21.7 9.181 23 9.181 23s7.096-.023 8.1-4.406h1.479a2.734 2.734 0 0 0 2.74-2.74V4.896a2.735 2.735 0 0 0-2.74-2.741H5.24zm3.938 2.196a.232.232 0 0 1 .08 0 .137.137 0 0 1 .065.032c.291.26-.483.514-.42 1.79.027.561-.14.998.934.998.717 0 .42-.64 1.324-.64.537 0 .735.347.81.628.074-.281.272-.627.81-.627.903 0 .606.639 1.323.639 1.074 0 .907-.437.934-.997.063-1.277-.711-1.532-.42-1.791.291-.26 1.542 1.261 1.573 1.853.032.619.048 1.594-.872 2.1 1.027 1.012 1.165 2.354 1.165 2.354l-1.776-.032s-.405-1.837-2.554-1.744c-2.149.094-2.429.468-2.429 2.741 0 2.274.997 3.055 2.523 3.115 2.398.093 2.18-1.246 2.18-1.246l-1.121.062-.623-1.681h3.83c0 1.837-.778 4.702-4.422 4.515-3.644-.186-4.453-3.052-4.485-4.983-.017-1.06.156-2.255 1.024-3.1-.91-.505-.881-1.48-.881-2.1 0-.767.99-1.819 1.428-1.886z"/>
</svg>
